<?xml version="1.0" encoding="utf-8"?>
<!-- Generator: Adobe Illustrator 16.0.0, SVG Export Plug-In . SVG Version: 6.00 Build 0)  -->
<!DOCTYPE svg PUBLIC "-//W3C//DTD SVG 1.1//EN" "http://www.w3.org/Graphics/SVG/1.1/DTD/svg11.dtd">
<svg version="1.1" id="Layer_1" xmlns="http://www.w3.org/2000/svg" xmlns:xlink="http://www.w3.org/1999/xlink" x="0px" y="0px"
	 width="792px" height="612px" viewBox="0 0 792 612" style="enable-background:new 0 0 792 612;" xml:space="preserve">
<style type="text/css">
<![CDATA[
	.st0{opacity:0.53;}
	.st1{fill:#FFCF51;}
	.st2{fill:#3877AC;}
]]>
</style>
<g class="st0">
	<g>
		<path class="st2" d="M155.466,475.534C72.422,474.829,4.532,541.586,3.831,624.63c-0.208,24.541,5.475,47.756,15.728,68.307
			l270.542-131.455C266.167,511.08,215.005,476.038,155.466,475.534z"/>
	</g>
	<g>
		<path class="st1" d="M152.92,776.266c83.043,0.704,150.934-66.045,151.638-149.089c0.2-23.507-5.009-45.798-14.459-65.697
			L19.559,692.935C44,741.929,94.416,775.771,152.92,776.266z"/>
	</g>
</g>
<g class="st0">
	<g>
		<path class="st2" d="M611.946,766.603c80.404,0.682,146.139-63.95,146.816-144.354c0.203-23.761-5.301-46.238-15.229-66.135
			L481.596,683.388C504.766,732.185,554.302,766.115,611.946,766.603z"/>
	</g>
	<g>
		<path class="st1" d="M614.411,475.43c-80.4-0.682-146.134,63.947-146.813,144.353c-0.193,22.759,4.848,44.342,14,63.605
			l261.938-127.272C719.87,508.676,671.058,475.908,614.411,475.43z"/>
	</g>
</g>
<g>
	<g>
		<path class="st2" d="M396.005,468.066c-149.797,0-271.225,121.431-271.222,271.215c0,44.266,10.605,86.05,29.41,122.957
			l485.945-241.223C596.201,530.482,503.393,468.066,396.005,468.066z"/>
	</g>
	<g>
		<path class="st1" d="M396.005,1010.493c149.786,0,271.212-121.425,271.212-271.212c0.002-42.396-9.73-82.521-27.078-118.266
			L154.194,862.238C199.025,950.229,290.476,1010.493,396.005,1010.493z"/>
	</g>
</g>
<g>
	<g>
		<path class="st2" d="M19.558,1090.297c159.462,0,288.735-129.276,288.735-288.737c0-47.123-11.293-91.608-31.312-130.899
			l-517.327,256.809C-193.572,1023.848-94.769,1090.297,19.558,1090.297z"/>
	</g>
	<g>
		<path class="st1" d="M19.558,512.827c-159.464,0-288.733,129.27-288.733,288.73c-0.001,45.138,10.36,87.854,28.83,125.907
			l517.327-256.809C229.247,576.985,131.897,512.827,19.558,512.827z"/>
	</g>
</g>
<g>
	<g>
		<path class="st2" d="M820.633,1045.536c159.462,0,288.735-129.276,288.735-288.737c0-47.123-11.293-91.608-31.312-130.899
			L560.729,882.708C607.503,979.087,706.306,1045.536,820.633,1045.536z"/>
	</g>
	<g>
		<path class="st1" d="M820.633,468.066c-159.464,0-288.732,129.27-288.732,288.73c-0.002,45.138,10.359,87.854,28.83,125.907
			l517.326-256.809C1030.321,532.225,932.972,468.066,820.633,468.066z"/>
	</g>
</g>
</svg>
